HIERARCHY
ROOT Hips
{
	OFFSET 0.000000 0.000000 0.000000 
	CHANNELS 6 Xposition Yposition Zposition Zrotation Yrotation Xrotation
	JOINT LeftUpLeg
	{
		OFFSET 1.363060 -1.794630 0.839290 
		CHANNELS 3 Zrotation Yrotation Xrotation
		JOINT LeftLeg
		{
			OFFSET 2.448110 -6.726130 0.000000 
			CHANNELS 3 Zrotation Yrotation Xrotation
			JOINT LeftFoot
			{
				OFFSET 2.562200 -7.039590 0.000000 
				CHANNELS 3 Zrotation Yrotation Xrotation
				JOINT LeftToeBase
				{
					OFFSET 0.157640 -0.433110 2.322550 
					CHANNELS 3 Zrotation Yrotation Xrotation
					End Site
					{
						OFFSET 0.000000 0.000000 0.000000 
					}
				}
			}
		}
	}
	JOINT RightUpLeg
	{
		OFFSET -1.305520 -1.794630 0.839290 
		CHANNELS 3 Zrotation Yrotation Xrotation
		JOINT RightLeg
		{
			OFFSET -2.542530 -6.985550 0.000000 
			CHANNELS 3 Zrotation Yrotation Xrotation
			JOINT RightFoot
			{
				OFFSET -2.568260 -7.056230 0.000000 
				CHANNELS 3 Zrotation Yrotation Xrotation
				JOINT RightToeBase
				{
					OFFSET -0.164730 -0.452590 2.363150 
					CHANNELS 3 Zrotation Yrotation Xrotation
					End Site
					{
						OFFSET 0.000000 0.000000 0.000000 
					}
				}
			}
		}
	}
	JOINT Spine
	{
		OFFSET 0.028270 2.035590 -0.193380 
		CHANNELS 3 Zrotation Yrotation Xrotation
		JOINT Spine1
		{
			OFFSET 0.056720 2.048850 -0.042750 
			CHANNELS 3 Zrotation Yrotation Xrotation
			JOINT Neck1
			{
				OFFSET -0.054170 1.746240 0.172020 
				CHANNELS 3 Zrotation Yrotation Xrotation
				JOINT Head
				{
					OFFSET 0.104070 1.761360 -0.123970 
					CHANNELS 3 Zrotation Yrotation Xrotation
					End Site
					{
						OFFSET 0.000000 0.000000 0.000000 
					}
				}
			}
			JOINT LeftArm
			{
				OFFSET 3.362410 1.200890 -0.311210 
				CHANNELS 3 Zrotation Yrotation Xrotation
				JOINT LeftForeArm
				{
					OFFSET 4.983000 -0.000000 -0.000000 
					CHANNELS 3 Zrotation Yrotation Xrotation
					JOINT LeftHand
					{
						OFFSET 3.483560 -0.000000 -0.000000 
						CHANNELS 3 Zrotation Yrotation Xrotation
						JOINT LeftHandIndex1
						{
							OFFSET 0.715260 -0.000000 -0.000000 
							CHANNELS 3 Zrotation Yrotation Xrotation
							End Site
							{
								OFFSET 0.000000 0.000000 0.000000 
							}
						}
					}
				}
			}
			JOINT RightArm
			{
				OFFSET -3.136600 1.374050 -0.404650 
				CHANNELS 3 Zrotation Yrotation Xrotation
				JOINT RightForeArm
				{
					OFFSET -5.241900 -0.000000 -0.000000 
					CHANNELS 3 Zrotation Yrotation Xrotation
					JOINT RightHand
					{
						OFFSET -3.444170 -0.000000 -0.000000 
						CHANNELS 3 Zrotation Yrotation Xrotation
						JOINT RightHandIndex1
						{
							OFFSET -0.622530 -0.000000 -0.000000 
							CHANNELS 3 Zrotation Yrotation Xrotation
							End Site
							{
								OFFSET 0.000000 0.000000 0.000000 
							}
						}
					}
				}
			}
		}
	}
}
MOTION
Frames: 9
Frame Time: 0.041667
7.510432 17.885433 -0.197060 87.356927 83.444913 97.713810 -17.943475 -1.511368 4.789894 -0.314545 6.149593 15.052859 4.434775 -11.646949 10.616435 0.001500 -0.249700 -0.686000 1.267729 9.240517 -26.792880 0.303692 -5.644027 14.750627 1.793279 -9.072187 6.089027 -0.245900 -3.190700 8.810200 -1.261813 -2.528735 -0.974824 3.113381 -1.683674 8.476887 5.408685 -2.232079 21.110610 -2.524400 0.896900 8.301500 -75.086149 -29.396151 34.204470 23.311580 -34.062654 -9.817520 -1.009098 -2.758946 -9.757926 -7.125000 0.000000 0.000000 76.361579 -2.351066 8.329360 -5.119381 10.090769 -1.401888 0.092201 -3.699829 17.758790 7.125000 0.000000 0.000000 
7.688561 17.850449 -0.194293 86.958473 83.305481 97.114917 -18.149311 -1.521372 5.454943 -0.306830 6.128397 15.057213 4.405130 -11.723049 11.570091 0.000500 0.151200 0.415500 1.790016 8.378174 -27.326177 0.110845 -6.133306 16.191818 1.485813 -8.399062 7.654539 -0.027000 -1.061600 2.918400 -0.815510 -3.716007 -1.428990 4.384434 -2.235087 7.143779 5.197042 -0.964212 20.636183 -2.265300 1.327100 7.558600 -76.190774 -26.834629 31.716944 23.077160 -34.062429 -9.784051 -0.991047 -2.717571 -9.139902 -7.125000 0.000000 0.000000 74.539673 -4.498133 11.223009 -4.958218 10.148570 -1.362912 0.168874 -3.728539 17.221633 7.125000 0.000000 0.000000 
7.870897 17.842036 -0.190418 87.648718 83.406287 97.734026 -18.156079 -1.572089 6.076528 -0.307934 6.086857 14.986436 4.419572 -11.974717 12.531590 0.002000 0.289800 0.796100 2.336560 7.641160 -27.860274 -0.076341 -6.590169 17.509436 1.216554 -7.932844 9.455353 -0.012300 -0.715700 1.966800 -1.053988 -3.089543 -1.177553 3.535937 -1.928067 7.744002 5.128506 -1.588740 20.850173 -2.553700 1.137800 8.002800 -76.019909 -27.777053 33.312870 22.666865 -33.617358 -9.474411 -1.011141 -2.748983 -9.173775 -7.125000 0.000000 0.000000 75.478214 -3.130689 8.001808 -4.700595 9.642790 -1.335069 0.019737 -3.836245 18.979844 7.125000 0.000000 0.000000 
8.060318 17.846907 -0.185989 90.039677 83.610849 100.108638 -17.919471 -1.792610 6.611050 -0.313818 6.076790 15.004786 4.435217 -12.181152 13.630018 0.003400 0.378000 1.038500 2.823067 7.210383 -28.299955 -0.249547 -6.991074 18.715288 1.002102 -7.475656 10.555011 -0.070900 -1.718100 4.727300 -1.004313 -3.206674 -1.169408 3.403775 -1.965784 7.792184 5.159578 -1.631943 20.832742 -2.511200 1.102900 7.983900 -76.273657 -27.477883 33.487625 22.206300 -33.214505 -9.182498 -1.016852 -2.743157 -9.065910 -7.125000 0.000000 0.000000 75.459228 -3.028902 7.116092 -4.612500 9.513061 -1.318873 -0.024041 -3.842619 19.728953 7.125000 0.000000 0.000000 
8.251733 17.848789 -0.179458 91.303032 83.953338 101.438716 -17.604762 -1.837739 6.879086 -0.298360 6.177859 15.336780 4.438028 -12.274210 14.609845 0.006400 0.515700 1.417200 3.231252 7.251538 -28.513648 -0.402810 -7.351229 19.784603 0.894646 -7.226366 11.048140 -0.086800 -1.900100 5.229600 -1.055689 -2.959852 -1.062938 2.951658 -1.827871 8.126307 5.147765 -2.032232 21.068859 -2.610900 0.966600 8.232900 -76.317317 -27.876229 34.302519 21.542024 -32.544032 -8.738473 -1.039507 -2.740913 -9.053354 -7.125000 0.000000 0.000000 75.836639 -2.436367 5.696211 -4.572008 9.384299 -1.311405 -0.079829 -3.831740 20.588121 7.125000 0.000000 0.000000 
8.439050 17.841150 -0.171708 91.804910 84.291553 101.902616 -17.290601 -1.690123 6.894244 -0.247513 6.434164 16.126883 4.420422 -12.249336 15.652796 0.022100 0.960000 2.638900 3.598063 7.498200 -28.433485 -0.545637 -7.671741 20.697554 0.920384 -7.485271 11.649784 -0.064500 -1.638200 4.506900 -0.834389 -3.292575 -1.176400 3.317336 -1.981037 7.890101 5.187133 -1.738323 21.180235 -2.461600 1.073500 8.105000 -77.039026 -26.976665 33.495645 20.896386 -32.001486 -8.384705 -1.056635 -2.718937 -8.609727 -7.125000 0.000000 0.000000 75.055411 -2.867881 6.116770 -4.407113 9.243550 -1.273368 -0.081203 -3.831749 20.848280 7.125000 0.000000 0.000000 
8.631904 17.829415 -0.165951 93.599592 84.466550 103.555569 -17.127901 -1.581576 6.864934 -0.164588 6.840057 17.341706 4.345540 -11.857846 17.021137 0.068600 1.690400 4.650700 3.946864 7.398487 -28.296720 -0.684264 -7.964591 21.533323 0.864429 -7.592533 12.624927 -0.083800 -1.867000 5.138200 -0.672745 -3.606614 -1.240525 3.562915 -2.130058 7.712798 5.118712 -1.574479 21.406481 -2.420900 1.147300 8.147700 -77.624638 -26.113881 32.778406 20.298147 -31.495549 -8.071818 -1.064673 -2.721679 -8.214901 -7.125000 0.000000 0.000000 74.531217 -2.986144 5.833673 -4.222785 9.032140 -1.238142 -0.126268 -3.849062 21.627812 7.125000 0.000000 0.000000 
8.828521 17.821112 -0.160194 95.676912 84.644199 105.519596 -16.980870 -1.403986 6.678755 -0.042614 7.340153 18.832041 4.279912 -11.493211 18.317777 0.120000 2.233300 6.150800 4.392359 7.044972 -28.268511 -0.801396 -8.234570 22.429489 0.510439 -6.289519 12.654002 -0.068700 -1.690600 4.651300 -0.766177 -3.377276 -1.271709 3.067715 -1.967393 7.401235 5.113351 -2.003675 21.614783 -2.572300 1.027200 8.279500 -77.645785 -25.467691 33.459133 19.639091 -30.876295 -7.684628 -1.075592 -2.750272 -8.168848 -7.125000 0.000000 0.000000 75.119604 -2.822550 3.375648 -4.028536 8.680941 -1.206221 -0.265761 -3.868949 23.512093 7.125000 0.000000 0.000000 
9.021485 17.819340 -0.154216 97.787120 84.970192 107.615151 -16.566716 -1.051375 6.133917 0.120579 7.885691 20.509074 4.305419 -11.750992 19.445020 0.141900 2.427600 6.689100 5.118645 6.625730 -28.355752 -0.921090 -8.513734 23.322364 0.424899 -5.647839 11.614866 -0.002200 -0.305400 0.839100 -0.378407 -4.214641 -1.436339 3.869294 -2.377659 7.209883 5.031004 -1.030925 21.350815 -2.335200 1.364800 7.809500 -78.528588 -23.996122 31.480335 18.935185 -30.294863 -7.349556 -1.098879 -2.718728 -7.687903 -7.125000 0.000000 0.000000 73.618283 -3.244793 4.357029 -3.693084 8.376236 -1.141248 -0.309984 -3.885124 24.310866 7.125000 0.000000 0.000000 
